<?xml version="1.0" encoding="UTF-8"?>
<svg xmlns="http://www.w3.org/2000/svg" xmlns:xlink="http://www.w3.org/1999/xlink" viewBox="0 0 48 48" width="48px" height="48px">
<g id="surface10182838">
<path style=" stroke:none;fill-rule:nonzero;fill:rgb(100%,100%,100%);fill-opacity:1;" d="M 43.375 24 C 43.375 34.699219 34.699219 43.375 24 43.375 C 13.300781 43.375 4.625 34.699219 4.625 24 C 4.625 13.300781 13.300781 4.625 24 4.625 C 34.699219 4.625 43.375 13.300781 43.375 24 Z M 43.375 24 "/>
<path style=" stroke:none;fill-rule:evenodd;fill:rgb(90.196079%,49.411765%,13.333334%);fill-opacity:1;" d="M 24 4 C 12.960938 4 4 12.960938 4 24 C 4 35.039062 12.960938 44 24 44 C 35.019531 44 44 35.039062 44 24 C 44 12.960938 35.019531 4 24 4 Z M 37.210938 13.21875 C 39.597656 16.125 41.027344 19.835938 41.070312 23.847656 C 40.507812 23.738281 34.867188 22.589844 29.183594 23.304688 C 29.054688 23.023438 28.945312 22.71875 28.816406 22.417969 C 28.46875 21.59375 28.078125 20.746094 27.6875 19.945312 C 33.976562 17.382812 36.84375 13.695312 37.210938 13.21875 Z M 24 6.949219 C 28.339844 6.949219 32.308594 8.578125 35.324219 11.246094 C 35.019531 11.679688 32.4375 15.128906 26.363281 17.40625 C 23.566406 12.265625 20.464844 8.054688 19.988281 7.40625 C 21.265625 7.101562 22.613281 6.949219 24 6.949219 Z M 16.734375 8.554688 C 17.1875 9.160156 20.226562 13.390625 23.066406 18.425781 C 15.085938 20.550781 8.035156 20.507812 7.273438 20.507812 C 8.382812 15.214844 11.960938 10.8125 16.734375 8.554688 Z M 6.90625 24.023438 C 6.90625 23.847656 6.90625 23.675781 6.90625 23.5 C 7.644531 23.523438 15.929688 23.632812 24.457031 21.070312 C 24.953125 22.023438 25.410156 23.003906 25.84375 23.976562 C 25.628906 24.042969 25.386719 24.109375 25.171875 24.171875 C 16.363281 27.015625 11.679688 34.78125 11.289062 35.429688 C 8.578125 32.417969 6.90625 28.402344 6.90625 24.023438 Z M 24 41.09375 C 20.050781 41.09375 16.40625 39.746094 13.523438 37.492188 C 13.828125 36.863281 17.296875 30.183594 26.929688 26.820312 C 26.972656 26.796875 26.992188 26.796875 27.039062 26.777344 C 29.445312 33.003906 30.421875 38.230469 30.683594 39.726562 C 28.621094 40.617188 26.363281 41.09375 24 41.09375 Z M 33.523438 38.164062 C 33.347656 37.125 32.4375 32.136719 30.203125 25.996094 C 35.5625 25.148438 40.246094 26.539062 40.832031 26.734375 C 40.097656 31.484375 37.363281 35.582031 33.523438 38.164062 Z M 33.523438 38.164062 "/>
</g>
</svg>
